Coordinates
version=1
nRows=8
nColumns=63
inDegrees=yes

Units are S.I. units (second, meters, Newtons, ...)
If the header above contains a line with 'inDegrees', this indicates whether rotational values are in degrees (yes) or radians (no).

endheader
time	pelvis_tilt	pelvis_list	pelvis_rotation	pelvis_tx	pelvis_ty	pelvis_tz	hip_flexion_r	hip_adduction_r	hip_rotation_r	knee_angle_r	knee_angle_r_beta	ankle_angle_r	subtalar_angle_r	mtp_angle_r	hip_flexion_l	hip_adduction_l	hip_rotation_l	knee_angle_l	knee_angle_l_beta	ankle_angle_l	subtalar_angle_l	mtp_angle_l	L5_S1_Flex_Ext	L5_S1_Lat_Bending	L5_S1_axial_rotation	L4_L5_Flex_Ext	L4_L5_Lat_Bending	L4_L5_axial_rotation	L3_L4_Flex_Ext	L3_L4_Lat_Bending	L3_L4_axial_rotation	L2_L3_Flex_Ext	L2_L3_Lat_Bending	L2_L3_axial_rotation	L1_L2_Flex_Ext	L1_L2_Lat_Bending	L1_L2_axial_rotation	L1_T12_Flex_Ext	L1_T12_Lat_Bending	L1_T12_axial_rotation	Abs_r3	Abs_r2	Abs_r1	Abs_t1	Abs_t2	neck_flexion	neck_bending	neck_rotation	arm_flex_r	arm_add_r	arm_rot_r	elbow_flex_r	pro_sup_r	wrist_flex_r	wrist_dev_r	arm_flex_l	arm_add_l	arm_rot_l	elbow_flex_l	pro_sup_l	wrist_flex_l	wrist_dev_l
      0.00000000	      0.12011078	     -4.70119834	     96.14982643	      0.28345846	      0.83620079	      0.81143851	      4.99919208	      1.20996251	    -12.92567245	      7.21159398	      0.12586606	     34.60298168	     18.06723715	      0.00000000	      6.68868487	     -3.85776316	     -6.02626272	      9.43837148	      0.16473066	     33.54396840	     13.26319334	      0.00000000	     -0.03722910	      0.06667325	      1.69871856	     -0.06913817	      0.08867542	      1.80488847	     -0.06116370	      0.16210934	      1.80488847	     -0.04254914	      0.16210934	      1.48637874	     -0.03457095	      0.13596009	      1.38020883	     -0.02127271	      0.10327687	      1.27403892	     -0.26592377	      0.75422115	      9.44776300	      0.00000000	      0.00000000	     19.10426467	      1.75031901	    -15.00045491	     -3.53974686	     -9.30269029	     14.55084674	     84.02292331	     56.38343519	     -0.24826806	     21.03674238	     15.78760483	     -7.94552140	     43.59497348	     71.23421982	     79.07581018	    -10.43094521	     -3.33262966
      0.01724138	     -0.28982506	     -4.91705838	     95.55654267	      0.28358688	      0.83638223	      0.81172447	      5.32607366	      0.63285716	    -13.17340585	      7.98934687	      0.13944041	     34.36255840	     18.01961468	      0.00000000	      6.72539389	     -3.44143970	     -6.28984010	      9.59895349	      0.16753334	     32.33297750	     12.42834957	      0.00000000	     -0.02893205	      0.01200525	      1.78267109	     -0.05372971	      0.01596698	      1.89408804	     -0.04753247	      0.02918956	      1.89408804	     -0.03306644	      0.02918956	      1.55983721	     -0.02686630	      0.02448110	      1.44842026	     -0.01653177	      0.01859613	      1.33700332	     -0.20665876	      0.13580575	      9.91468181	      0.00000000	      0.00000000	     19.53997634	      1.59502639	    -15.91525577	     -2.63572442	     -9.50487449	     14.61490682	     82.56565313	     79.24655388	      5.70034353	     13.81895452	     15.04563408	     -9.30195248	     44.84593316	     72.28426104	     76.97373503	     -6.71057391	      0.08500963
      0.03448276	     -0.55589733	     -5.01845460	     95.02143770	      0.28347667	      0.83647003	      0.81224420	      5.56435959	      0.21943470	    -13.47656119	      8.60009924	      0.15010005	     34.14192140	     18.16599963	      0.00000000	      6.70155469	     -3.11875451	     -6.09696423	      9.64014267	      0.16825223	     31.42486347	     11.18861343	      0.00000000	     -0.02896604	     -0.01720619	      1.86390803	     -0.05379283	     -0.02288424	      1.98040228	     -0.04758831	     -0.04183514	      1.98040228	     -0.03310529	     -0.04183514	      1.63091952	     -0.02689786	     -0.03508687	      1.51442527	     -0.01655120	     -0.02665239	      1.39793102	     -0.20690153	     -0.19463990	     10.36649727	      0.00000000	      0.00000000	     19.72594730	      1.46284236	    -16.49190466	     -1.73094609	    -10.22610694	     15.77386450	     81.77225656	     87.69915318	      6.81521134	      9.87207122	     14.83497290	    -10.30361820	     46.40885170	     72.63264460	     74.77792649	     -4.35869252	      1.74358900
      0.05172414	     -0.58909113	     -5.15233241	     94.77816171	      0.28315822	      0.83634093	      0.81287908	      5.75626861	      0.09322081	    -13.77383146	      8.85709753	      0.15458551	     33.71310999	     18.12376685	      0.00000000	      6.82795630	     -3.05413466	     -6.30717973	      9.67615040	      0.16888068	     30.94747281	     10.88867511	      0.00000000	     -0.02106213	     -0.01553049	      1.88641495	     -0.03911448	     -0.02065555	      2.00431588	     -0.03460297	     -0.03776083	      2.00431588	     -0.02407191	     -0.03776083	      1.65061308	     -0.01955829	     -0.03166977	      1.53271214	     -0.01203490	     -0.02405672	      1.41481121	     -0.15044469	     -0.17568397	     10.49167401	      0.00000000	      0.00000000	     19.86725711	      1.29157833	    -16.65653090	     -1.23163210	    -10.73329382	     16.70244853	     81.56709367	     88.45339404	      7.04219040	      9.92572866	     14.57460130	    -10.93165545	     47.45102384	     72.78860788	     74.71044942	     -3.78723284	      1.99811886
      0.06896552	     -0.75677947	     -5.24288420	     94.45446471	      0.28317687	      0.83609051	      0.81363227	      6.02253766	     -0.17105114	    -13.83146001	      9.27011026	      0.16179395	     33.66371993	     18.24393462	      0.00000000	      6.95035387	     -2.86649078	     -6.36158732	      9.74353110	      0.17005670	     30.81108575	     10.51607460	      0.00000000	     -0.02179758	     -0.02808772	      1.92125850	     -0.04048029	     -0.03735667	      2.04133716	     -0.03581125	     -0.06829249	      2.04133716	     -0.02491246	     -0.06829249	      1.68110119	     -0.02024123	     -0.05727648	      1.56102253	     -0.01245514	     -0.04350788	      1.44094388	     -0.15569794	     -0.31773392	     10.68546341	      0.00000000	      0.00000000	     19.93892233	      1.07606349	    -16.69126727	     -0.83568357	    -11.00603326	     17.41719375	     81.27012620	     88.62712487	      7.44968340	     10.38167102	     14.62225435	    -11.49494398	     48.32716972	     72.79270955	     74.56828178	     -3.00772450	      2.25348561
      0.08620690	     -0.78735379	     -5.23491957	     94.38515919	      0.28285631	      0.83592878	      0.81400578	      6.04251649	     -0.25288165	    -13.88522017	      9.34466924	      0.16309525	     33.50672263	     18.23007448	      0.00000000	      6.98061161	     -2.81253104	     -6.35302652	      9.75419476	      0.17024281	     30.84462901	     10.48329013	      0.00000000	     -0.03028691	     -0.02376174	      1.93248756	     -0.05624581	     -0.03160312	      2.05326803	     -0.04975836	     -0.05777430	      2.05326803	     -0.03461491	     -0.05777430	      1.69092661	     -0.02812442	     -0.04845494	      1.57014614	     -0.01730594	     -0.03680694	      1.44936567	     -0.21633634	     -0.26879757	     10.74791606	      0.00000000	      0.00000000	     20.00761383	      1.04460982	    -16.67890683	     -0.97906933	    -10.99323699	     17.42735859	     81.13723942	     88.55317374	      7.51889484	     10.55406785	     14.37797974	    -11.63111968	     48.46353893	     72.74238587	     74.57713841	     -2.92731651	      2.25930038
      0.10344828	     -0.97475619	     -5.46019040	     93.79096738	      0.28345148	      0.83529525	      0.81486901	      6.59211243	     -0.49815136	    -13.67809783	      9.85757997	      0.17204723	     33.64336562	     18.42381837	      0.00000000	      7.20069430	     -2.60705757	     -6.42830347	      9.69677245	      0.16924061	     30.83237781	      9.71657078	      0.00000000	     -0.01743663	     -0.03859237	      2.06653351	     -0.03238157	     -0.05132785	      2.19569185	     -0.02864664	     -0.09383348	      2.19569185	     -0.01992833	     -0.09383348	      1.80821682	     -0.01619166	     -0.07869756	      1.67905848	     -0.00996329	     -0.05977958	      1.54990013	     -0.12454813	     -0.43656459	     11.49343942	      0.00000000	      0.00000000	     20.14257491	      0.79254134	    -16.57073184	     -1.41554029	    -10.32392643	     15.84021195	     81.78995380	     87.75508236	     10.25199463	     15.94174759	     14.22924997	    -11.68458555	     48.21698246	     72.52316206	     75.22021959	     -1.63583923	      1.45436713
      0.12068966	     -0.95860111	     -5.37727158	     93.64466767	      0.28356112	      0.83517372	      0.81533286	      6.56554062	     -0.47980318	    -13.61238011	      9.87847908	      0.17241198	     33.59622986	     18.52205464	      0.00000000	      7.09149908	     -2.58770607	     -5.97224928	      9.55720376	      0.16680467	     30.82700359	      8.99231174	      0.00000000	     -0.04083472	     -0.03044665	      2.09623496	     -0.07583415	     -0.04049405	      2.22724965	     -0.06708736	     -0.07402799	      2.22724965	     -0.04667000	     -0.07402799	      1.83420559	     -0.03791912	     -0.06208681	      1.70319091	     -0.02333296	     -0.04716187	      1.57217622	     -0.29167830	     -0.34441863	     11.65862999	      0.00000000	      0.00000000	     20.22114789	      0.70409990	    -16.47925620	     -1.72262805	    -10.09821605	     15.52543279	     81.78667386	     86.62089828	      9.98171938	     16.88476375	     13.95852222	    -11.64428440	     47.85879763	     72.53391777	     73.91919960	     -1.74217336	      1.36146524
